<?xml version="1.0" encoding="UTF-8"?><svg id="Layer_1" xmlns="http://www.w3.org/2000/svg" viewBox="0 0 144 144"><defs><style>.cls-1{fill:#fff;}.cls-2{fill:#636d5d;}</style></defs><rect class="cls-2" width="144" height="144" rx="18.11" ry="18.11"/><path class="cls-1" d="M38.51,126.83h-2.16c-5.86-2-3-10.52,2.78-8.31,3.88,1.48,3.26,7.16-.62,8.31Z"/><path class="cls-1" d="M55.79,126.83h-2.16c-5.86-2-3-10.52,2.78-8.31,3.88,1.48,3.26,7.16-.62,8.31Z"/><path class="cls-1" d="M73.07,126.83h-2.16c-5.86-2-3-10.52,2.78-8.31,3.88,1.48,3.26,7.16-.62,8.31Z"/><path class="cls-1" d="M90.35,126.83h-2.16c-5.86-2-3-10.52,2.78-8.31,3.88,1.48,3.26,7.16-.62,8.31Z"/><path class="cls-1" d="M107.63,126.83h-2.16c-5.86-2-3-10.52,2.78-8.31,3.88,1.48,3.26,7.16-.62,8.31Z"/><path class="cls-1" d="M38.44,64.26l66.63-.07c7.69,1.3,7.71,11.62,0,12.96H38.92c-7.43-1.3-7.82-11.04-.47-12.9Z"/><path class="cls-1" d="M78.47,18.83v15.66c-2.75-.32-5.46-.69-8.25-.55-1.38.07-2.99.55-4.3.56-.42,0-.46.06-.41-.41v-15.26h12.96Z"/><path class="cls-1" d="M101.42,59.87h-58.86c8.1-28.67,50.76-28.67,58.86,0Z"/><circle class="cls-1" cx="54.71" cy="87.95" r="4.34"/><circle class="cls-1" cx="71.99" cy="87.95" r="4.34"/><circle class="cls-1" cx="89.27" cy="87.95" r="4.34"/><circle class="cls-1" cx="46.07" cy="105.23" r="4.34"/><circle class="cls-1" cx="63.35" cy="105.23" r="4.34"/><circle class="cls-1" cx="80.63" cy="105.23" r="4.34"/><circle class="cls-1" cx="97.91" cy="105.23" r="4.34"/></svg>