<?xml version="1.0" encoding="UTF-8"?><svg id="Layer_1" xmlns="http://www.w3.org/2000/svg" viewBox="0 0 144 144"><defs><style>.cls-1{fill:#fff;}.cls-2{fill:#636d5d;}</style></defs><rect class="cls-2" width="144" height="144" rx="18.11" ry="18.11"/><path class="cls-1" d="M100.08,95.84c1.45-.24,2.88.24,4.25.31,5.31.26,13.61-.85,18.4.12,3.87.78,4.23,5.31.88,7.09-21.83.5-43.57-.65-65.27-2.81l1.23,9.79c5.86,3.68,14.84,3.8,21.34,1.76,2.51-.79,4.75-2.77,6.61-3.38,2.6-.86,4.92,1.75,7.37,2.77,6.78,2.81,16.29,2.57,22.84-.78,2.26-1.16,4.16-3.65,6.9-1.33s.8,5.1-1.53,6.71c-9.18,6.32-24.71,5.88-34.33.67-10.41,5.34-23.09,5.37-33.51,0-1.66.67-3.22,1.54-4.92,2.12-8.51,2.89-19.32,2.51-27.38-1.59-2.77-1.41-6.81-3.96-4.02-7.46,3.02-3.77,7.19,1.83,10.59,2.21-2.29-4.81-4.39-9.99-5.49-15.23-.65-3.08-2.48-10.03,2.41-10.36,1.54-.11,6.62,2.04,8.6,2.58,3.3.9,6.68,1.46,10.02,2.18l.92,7.6-14.69-3.23c1.65,6.14,3.73,12.67,7.78,17.66,4.43.12,8.98-.9,12.81-3.16v-2.89s-7.36-64.97-7.36-64.97c-.39-3.8,2.31-5.58,5.79-4.32l14.66,8c9.68-1.47,19.69-8.78,28.64-1.33,1.32,1.1,2.76,2.85,3.57,4.36,2.82,5.25,3.43,21.84,2.9,27.98-.24,2.8-1.49,5.21-4.03,6.55-6.45,3.39-14.75.29-21.55-.24l.88,11.46,14.99.88-.57-5.57c3.62-.37,7.24-1.17,10.27-3.25v9.11ZM75.96,50.58c-4.01.9-8.04,2.79-12.17,2.92l-11.33-5.86,1.47,13.52,13.69-2.62,4.23-3.84c1.31,2.04,2.99,3.86,3.52,6.33-.04.65-3.69,4.16-4.7,4.39l-15.87,3.09,2.92,24.56,9.72,1.01-4.1-16.06c.05-2.32,1.53-3.49,3.68-3.9l13.65-1.5c-.89-7.46-1.73-15.08-4.72-22.04Z"/><circle class="cls-1" cx="74.6" cy="30.1" r="9.79"/></svg>