<?xml version="1.0" encoding="UTF-8"?><svg id="Layer_1" xmlns="http://www.w3.org/2000/svg" viewBox="0 0 144 144"><defs><style>.cls-1{fill:#fff;}.cls-2{fill:#636d5d;}</style></defs><rect class="cls-2" width="144" height="144" rx="18.11" ry="18.11"/><path class="cls-1" d="M63.7,41.38l63.9,31.59-9.9,14.51c-5.4,4.72-9.87,2.17-15.53.08-22.29-8.22-44.21-17.69-66.39-26.16-13.21-7.75-14.94-28.32-15.78-42.06l32.92,16.44c7.31-3.33,13.67-9.05,21.24-11.68,3.75,0,5.92,4.68,4.02,7.7-1.2,1.91-15.01,8.87-14.49,9.56Z"/><path class="cls-1" d="M20,68.56l108,39.47-.08,6.02c-2.14.76-4.26,1.63-6.49,2.15-6.57,1.54-11.3,1.38-17.78-.36-2.5-.67-8.22-3.5-10.06-3.54-1.56-.03-8.57,3.21-11.16,3.83-10.36,2.46-18.23.24-27.76-3.83-5.21,1.45-9.97,3.92-15.44,4.7-6.72.97-12.96-.63-19.24-2.89v-45.54Z"/></svg>