<?xml version="1.0" encoding="UTF-8"?><svg id="Layer_1" xmlns="http://www.w3.org/2000/svg" viewBox="0 0 144 144"><defs><style>.cls-1{fill:#fff;}.cls-2{fill:#603913;}</style></defs><rect class="cls-2" width="144" height="144" rx="18.11" ry="18.11"/><path class="cls-1" d="M26.55,122v-8.98h27.21v-4.63h-27.21v-8.98h27.21v-4.63h-27.21v-8.98h27.21v-4.63h-27.21v-8.98h90.89v8.98h-27.21v4.63h27.21v8.98h-27.21v4.63h27.21v8.98h-27.21v4.63h27.21v8.98H26.55ZM80.98,81.18h-17.96v31.84h17.96v-31.84Z"/><path class="cls-1" d="M71.93,14l53.83,50.86v.54s-5.87,6.14-5.87,6.14c-.21.18-.33.11-.54,0-1-.51-2.78-3.19-4.09-3.82l-85.6-.16c-1.33-.33-4.77,4.19-5.39,4.08l-6.04-6.24L71.93,14ZM77.17,31.38c.12-.53-.19-.52-.46-.77-1.57-1.43-3.1-2.89-4.61-4.38-.33-.06-4.23,3.92-4.92,4.53-.18.16-.52-.02-.35.62h10.34ZM91.32,44.99c.1-.46-.15-.55-.41-.81-.59-.57-3.42-3.34-3.79-3.56s-.65-.33-1.09-.27l-28.58.02c-.51.1-3.57,3.18-4.31,3.85-.27.24-.58.24-.46.77h38.64ZM105.47,58.59c-.76-1.88-2.98-2.8-4.2-4.37-19.42-.43-39.14-.43-58.54,0-1.19,1.62-3.44,2.49-4.2,4.37h66.94Z"/></svg>