<?xml version="1.0" encoding="UTF-8"?><svg id="Layer_1" xmlns="http://www.w3.org/2000/svg" viewBox="0 0 144 144"><defs><style>.cls-1{fill:#fff;}.cls-2{fill:#636d5d;}</style></defs><rect class="cls-2" width="144" height="144" rx="18.11" ry="18.11"/><path class="cls-1" d="M73.99,17.28c.93.45,1.97.48,2.94.97.6.3,1.05.89,1.55,1.14,3.5,1.81,5.28,2.27,6.23,6.71.81,3.8-.65,6.09-.67,9.15,0,.72.76,1.98.72,3.14-.09,2.59-1.24,3.07-2.25,4.78-.48.81-.83,2.34-1.27,3.32-.29.65-1.11,1.47-1.25,1.98-.19.72-.16,2.81.14,3.51.58,1.33,6.48,3.66,8.06,4.6,2.86,1.7,5.51,4.06,6.56,7.32,2.2-.18,2.2-2.98,1.83-4.66-.16-.72-1.02-1.46-1.34-2.17-.41-.91-.65-2.23-1.07-2.98-1.01-1.82-2.38-2.31-2.39-5.15,0-1.04.74-2.24.77-2.95.04-1.03-.71-3.3-.77-4.6-.36-7.52,3.45-12.77,11.17-13.35,4.9-.37,7.93,1.83,11.88,4.31,2.57,3.12,2.69,6.79,2.25,10.62-.1.91-.7,2.32-.7,3.05s.76,1.98.72,3.14c-.09,2.59-1.24,3.07-2.25,4.78-.48.81-.83,2.34-1.27,3.32-.29.65-1.11,1.47-1.25,1.98-1.32,4.98,3.1,5.44,6.31,7.3,3.98,2.3,6.38,4.82,7.36,9.48v26.14c-3.01,8.96-10.57,15.35-18.95,19.18-2.78,1.27-6.06,2.63-9.08,2.92v-4.18c0-4.33-3.76-8.27-7.27-10.25-2.07-1.16-9.32-3.53-10.11-5.26-.28-.62-.23-3.61-.02-4.32.09-.28,2.27-5.03,2.46-5.36,1.14-1.95,2.37-2.4,2.52-5.32.07-1.4-.72-2.31-.75-3.18-.05-1.42.98-4.39,1.04-6.21.1-3.03-.8-7.14-3.25-9.14-1.05-.86-6.18-3.57-7.46-3.86-8.1-1.84-15.82,2.5-16.49,11.11-.22,2.83.93,6.01.79,8.07-.08,1.09-.9,1.64-.77,3.48.24,3.17,1.51,3.14,2.51,5.04.29.55,2.34,4.97,2.46,5.36.21.71.26,3.7-.02,4.32-.78,1.73-8.02,4.07-10.11,5.26-3.34,1.9-7.27,5.82-7.27,9.98v4.45c-11.83-2.53-24.69-10.52-28.02-22.77.47-7.96-.64-16.65-.01-24.53.4-5.02,3.25-8.02,7.37-10.41,3.22-1.87,7.63-2.32,6.31-7.3-.14-.51-.96-1.33-1.25-1.98-.44-.97-.79-2.51-1.27-3.32-1.01-1.71-2.16-2.19-2.25-4.78-.04-1.16.72-2.42.72-3.14s-.6-2.14-.7-3.05c-.46-3.93-.33-7.6,2.4-10.74,3.96-2.41,6.84-4.55,11.73-4.19,7.72.57,11.53,5.83,11.17,13.35-.06,1.3-.81,3.57-.77,4.6.03.71.77,1.91.77,2.95,0,2.84-1.38,3.34-2.39,5.15-.42.75-.66,2.07-1.07,2.98-.32.71-1.18,1.44-1.34,2.17-.37,1.68-.37,4.48,1.83,4.66,1.21-3.55,4.11-5.91,7.27-7.69,1.5-.84,7.09-2.96,7.5-4.36.19-.64.13-2.93-.07-3.59-.11-.35-1.93-4.15-2.24-4.76-.67-1.32-1.64-1.49-2.14-3.52-.64-2.6.38-2.98.42-4.77.03-1.26-.74-3.61-.77-5.12-.13-5.35,1.93-10.1,7.22-11.94l3.3-.87h4.04Z"/></svg>