<?xml version="1.0" encoding="UTF-8"?><svg id="Layer_1" xmlns="http://www.w3.org/2000/svg" viewBox="0 0 144 144"><defs><style>.cls-1{fill:#fff;}.cls-2{fill:#636d5d;}</style></defs><rect class="cls-2" width="144" height="144" rx="18.11" ry="18.11"/><path class="cls-1" d="M115.2,76.63l-42.48-36.82s-.1-.04-.14-.07v-6.1l22.35-9.29-23.61-9.68v25.1c-.37.18-.74.46-1.01.66l-41.52,36.2c-.52,1.09.07,2.49,1.32,2.65,1.68.22,3.63-2.67,5.07-3.49h73.63c1.44.81,3.39,3.7,5.07,3.49,1.25-.16,1.84-1.56,1.32-2.65Z"/><path class="cls-1" d="M37.66,122.67h68.68v-43.39H37.66v43.39ZM64.77,94.19h14.46v25.53h-14.46v-25.53Z"/></svg>