<?xml version="1.0" encoding="UTF-8"?><svg id="Layer_1" xmlns="http://www.w3.org/2000/svg" viewBox="0 0 144 144"><defs><style>.cls-1{fill:#fff;}.cls-2{fill:none;stroke:#fff;stroke-miterlimit:10;stroke-width:3px;}.cls-3{fill:#636d5d;}</style></defs><rect class="cls-3" width="144" height="144" rx="18.11" ry="18.11"/><path class="cls-1" d="M124.39,14.24v11.51h-35.38v6.72h29.28c4.76,15.98,14.04,31.49,11.01,49.13-.32,1.26-7.86.33-9.73,2-1.73,1.55-2.13,4.09-3.71,5.82-9.01,9.91-21.08,7.57-26.44-4.16-11.04,1.13-24.55-1.34-35.25-.02-5.32.66-3.14,2.6-5.4,5.37-7.96,9.76-26.86,3.32-26.86-8.24V7.81h96.05c3.55,0,6.43,2.88,6.43,6.43ZM37.77,32.47v23.49h35.38v-23.49h-35.38ZM110.97,41.87h-17.08v14.09h21.96l-4.88-14.09ZM42.89,80.93c0-2.74-2.31-4.96-5.16-4.96s-5.16,2.22-5.16,4.96,2.31,4.96,5.16,4.96,5.16-2.22,5.16-4.96ZM108.8,80.93c0-2.73-2.3-4.94-5.13-4.94s-5.13,2.21-5.13,4.94,2.3,4.94,5.13,4.94,5.13-2.21,5.13-4.94Z"/><polygon class="cls-1" points="55.97 100.62 55.97 110.96 72 110.96 72 127.04 32.57 127.04 32.57 110.96 47.29 110.96 47.29 100.62 9.3 100.62 9.3 133.94 136.83 133.94 136.83 100.62 55.97 100.62"/><line class="cls-2" x1="51.76" y1="115.08" x2="51.76" y2="95.63"/><polygon class="cls-1" points="55.64 113.95 51.76 120.68 47.87 113.95 55.64 113.95"/></svg>