<?xml version="1.0" encoding="UTF-8"?><svg id="Layer_1" xmlns="http://www.w3.org/2000/svg" viewBox="0 0 144 144"><defs><style>.cls-1{fill:#fff;}.cls-2{fill:#636d5d;}</style></defs><rect class="cls-2" width="144" height="144" rx="18.11" ry="18.11"/><path class="cls-1" d="M61.87,87.81h26.16c4.11-3.45,7.86-8.74,11.98-11.99,3.04-2.39,7.18-1.97,7.96,2.18s-5.02,6.8-6.95,9.8h12.99c1.26,0,4.46,1.73,5.54,2.56,10.64,8.15,8.09,32.9-7.55,33.57H31.65c-14.83-1.47-17.55-23.47-8.27-32.6,1.22-1.2,4.95-3.53,6.59-3.53h15.02c-1.1-4.48-3.91-8.41-6.75-11.99-.39-.18-2.09,2.13-4.41,1.38-.6-.19-6.02-5.5-6.35-6.14-1.01-1.97-.22-3.65,1.29-5.02-2.39-2.36-5.14-4.34-3.78-8.18l14.25-14.44c1.55-1.38,3.56-1.59,5.43-.69s4.05,4.48,5.39,5.1c.9.41,3.71-1.86,4.54-2.56,5.57-4.71,9.36-12.58,15.36-18.05,2.76-2.52,13.34-10.66,16.72-10.64s8.52,9.66,7.08,12.84c-.13.29-2.14,1.87-2.43,1.96-1.12.32-2.96-.04-4.27.11-12.43,1.41-17.55,18.82-26.53,25.78,0,.42,5.74,3.45,6.62,3.83,3.33,1.45,8.4,1.55,8.58,5.95s-5.23,12.38-8.11,15.54c-1.76,1.93-3.9,3.39-5.75,5.22ZM65.24,69.58c-9.26-2.66-16.22-9.87-22.78-16.54l-6.91,6.91c6.68,6.65,14.11,13.42,16.87,22.78,3.38-1.39,6.74-4.16,9.12-6.91.66-.76,4.32-5.56,3.7-6.25ZM111.72,96.99c-3.12.95-3.88,8.21-3.61,10.9.31,3.06,3.06,9.61,6.59,5.58,2.04-2.32,2.48-6.67,2.18-9.63-.23-2.29-2.15-7.77-5.16-6.86Z"/></svg>