<?xml version="1.0" encoding="UTF-8"?><svg id="Layer_1" xmlns="http://www.w3.org/2000/svg" viewBox="0 0 144 144"><defs><style>.cls-1{fill:#fff;}.cls-2{fill:#636d5d;}</style></defs><rect class="cls-2" width="144" height="144" rx="18.11" ry="18.11"/><path class="cls-1" d="M85.72,49.1c.5.1,1.91,1.19,2.21,1.68,1.77,2.81-.31,5.42-3.19,6l.28,10.79c4.63-.01,4.68,8.99,1.77,10.65-.19.11-1.53.59-1.63.59h-7.64v12.91c-3.33,1.84-7.37,2.07-11.11,1.53v-14.44h-22.21v14.02l-.47.36c-3.72.91-7.08-.14-10.64-1.06v-13.33h-11.11v-11.11h10.69l.42-.42v-10.69h-11.11v-7.5h63.72ZM55.31,56.6h-14.99v11.11h14.99v-11.11ZM77.53,56.6h-14.99v11.11h14.99v-11.11Z"/><path class="cls-1" d="M22.92,113.05c2.19-2.19,4.76-.26,6.98.47,6.83,2.24,10.84,3.02,17.97,1.03,2.15-.6,5.66-2.52,7.58-2.44s5.9,2.15,8.13,2.71c4.8,1.21,8.32,1.16,13.11-.05,2.32-.59,6.5-2.77,8.47-2.66s6.32,2.34,8.79,2.89c4.95,1.11,8.2.89,13.06-.45,3.08-.85,8.3-4.28,10.49-.89,2.38,3.67-1.39,5.54-4.17,6.66-6.89,2.78-13.59,3.54-20.87,2-1.75-.37-6.68-2.43-7.58-2.43s-5.82,2.06-7.58,2.43c-5.34,1.11-9.65,1.11-14.99-.1-1.68-.38-6.16-2.33-7.13-2.33-.9,0-5.83,2.06-7.58,2.43-6.94,1.46-17.63.61-23.75-3.29-2.05-1.31-2.69-4.2-.92-5.97Z"/><path class="cls-1" d="M24.99,97.19c1.48-.2,7.79,2.59,10.11,3.09,7.7,1.65,13.22-.6,20.34-3.12,7.57,3.16,13.45,4.83,21.6,2.68,1.76-.46,6.67-2.7,7.82-2.68,1.46.03,6.36,2.39,8.5,2.89,5.04,1.2,8.4,1.12,13.39-.22,1.76-.47,6.61-2.73,7.83-2.68,3.22.13,4.72,4.1,2.54,6.38-1.23,1.28-6.55,3.02-8.42,3.52-8.15,2.15-16.21,1.45-23.85-2.07-9.36,4.41-20.24,4.41-29.61,0-7.81,3.6-15.98,4.24-24.28,1.95-2.06-.57-8.39-2.51-8.89-4.71s.51-4.69,2.93-5.02Z"/><path class="cls-1" d="M96.84,20.12c-.47-.02-1.09.42-1.06.93l5.08,24.9c.18,1.61,1.99,1.67,2.19.09l-5.2-25.01c-.04-.49-.53-.89-1-.92Z"/><path class="cls-1" d="M71,38.45c.4.24.57.52.6.99l-2.48,7.06c-.31.57-.8.69-1.42.57-.39-.08-2.4-.81-2.73-1.01s-.56-.55-.54-.95l2.48-7.18c.19-.37.67-.62,1.07-.58.34.04,2.68.9,3.01,1.09ZM66.83,44.51l.71.26,1.71-4.72-.71-.26-1.71,4.72Z"/><path class="cls-1" d="M89.77,17.02c-.19-.85-.89-1.71-1.81-1.18-1.22.7.05,1.94-.13,2.19-1.93.85-3.68,2.05-5.38,3.28-.23,0-1.04-1.88-2.16-.78-.75.74-.19,1.39.39,2.01l-.04.15c-1.43,1.27-2.88,2.59-4.05,4.08-.21.15-1.56-1.33-2.38-.39-.77.88.13,1.75.91,2.16-.93,1.13-1.74,2.39-2.47,3.65-.46.8-2.01,3.51-1.96,4.29.07.92,1.19,1.33,1.82.57.51-.61,1.2-2.46,1.68-3.31,4.11-7.31,10.95-12.83,18.8-15.7.7-.25,2.82-.73,3.19-1.13.65-.71.18-1.78-.78-1.78-.68,0-2.82.79-3.57,1.07-.7.25-1.37.58-2.07.83Z"/><path class="cls-1" d="M66.97,27.62c2.45,0,4.44,1.99,4.44,4.44s-1.99,4.44-4.44,4.44-4.44-1.99-4.44-4.44,1.99-4.44,4.44-4.44ZM65.96,30.22c.24.19.62.31.8.56.35.5.31,1.19-.21,1.56-.87.63-1.74-.5-1.87-.34-.1,2.45,3.42,3.24,4.37,1.02.9-2.1-1.2-4.03-3.24-3.06-.07.26.05.19.14.26Z"/><path class="cls-1" d="M107.61,62.24c-1.83.08-3.39,1.33-3.97,3.04-.2.58-.46,1.33.17,1.72.35.21,3.48.12,3.6.25-.24,2.46-1.31,4.95-3.05,6.72-1.87-1.66-3.27-3.78-3.88-6.21l-.31-.31-6.78-.41c-.84.49.12,1.92.49,2.56,1.96,3.36,5.2,5.73,9.01,6.47,2.51.49,8.16.03,10.54-.89,6.23-2.41,9.83-9.01,8.34-15.51-.25-1.08-1.35-4.18-2.24-4.74-.37-.23-2.42.36-2.98.27l-1.21-1.5c-2.84-2.94-6.81-4.52-10.88-4.19-.71.06-2.43.09-2.36,1.06s1.22,5.41,1.65,6.25c.39.78.92,1.17,1.37,1.82.34.49,1.16,2.09,1.52,2.31.12.07.27.02.36.05.41.18.39.88.61,1.23Z"/></svg>