<?xml version="1.0" encoding="UTF-8"?><svg id="Layer_1" xmlns="http://www.w3.org/2000/svg" viewBox="0 0 144 144"><defs><style>.cls-1{fill:#fff;}.cls-2{fill:#636d5d;}</style></defs><rect class="cls-2" width="144" height="144" rx="18.11" ry="18.11"/><path class="cls-1" d="M126.63,114.86v4.86c-.7,2.27-2.06,3.62-4.32,4.32H22.95c-2.27-.7-3.62-2.06-4.32-4.32v-4.86c.96-2.12,2.22-3.77,4.72-4.05l99.24.12c2.13.5,3.17,2.07,4.03,3.93Z"/><path class="cls-1" d="M29.36,56.07c1.47-.26,7.35-.28,8.83-.05.71.11,1.62.72,1.76,1.48l.02,48.07c-.04,1.09-1.11,1.58-2.06,1.72-1.62.23-6.68.22-8.28-.04-1.19-.2-1.98-.7-2.06-1.99l-.04-46.69c.13-1.39.32-2.22,1.83-2.49Z"/><path class="cls-1" d="M106.84,56.06c1.2-.27,7.76-.22,9.06,0,1.21.22,1.63.8,1.79,1.99l.02,46.95c-.03,1.53-.91,2.08-2.32,2.27-1.65.22-6.41.23-8.05,0-.82-.12-1.87-.55-2.04-1.47l-.02-48.07c-.02-.77.85-1.53,1.56-1.68Z"/><path class="cls-1" d="M88.83,95.15h-14.31v11.2c0,1.24-3.78,1.24-3.78,0v-11.2h-14.31v11.47c-.91.96-2.6.96-3.51,0v-11.07l-.4-.4h-8.37c-1.01-.9-1.07-3.42.52-3.53l56.18.02c1.28.23,1.23,2.79.27,3.51h-8.37l-.41.4v11.07c-.91.96-2.6.96-3.51,0v-11.47Z"/><path class="cls-1" d="M78.03,16.04c3.24,1.06,4.73,3.78,4.32,7.16-.17,1.39-.69,1.64-2.02,1.76-3.82.35-11.6.35-15.41,0-.82-.08-1.6-.15-1.89-1.08-1.02-3.16.99-7.02,4.2-7.85h10.8Z"/><path class="cls-1" d="M18.63,44.39c.87-2,2.22-3.44,4.48-3.76,9.95-1.39,16.73-2.01,26.13-6.27,2.38-1.08,9.14-5.48,10.82-5.65,8.12-.79,17.61.57,25.87.07,9.67,6.34,19.98,9.87,31.42,11.51,3.8.54,7.63-.41,9.28,4.08v4.32c-.75,1.61-1.57,2.94-3.36,3.53l-99.93.26c-2.48-.22-3.78-1.61-4.71-3.79v-4.32ZM70.13,33.39c-.41-.41-1.84-.46-2.37-.2-.33.16-.7.99-1.07,1.36-1.54,1.52-2.85,2.83-4.87,3.77-1.7.79-6.36,1.19-4.56,4.03,1.13,1.78,6.11-.78,7.54-1.59,1.62-.92,7.48-5.22,5.33-7.37ZM75.12,33.39c-1.13,1.13.15,2.82.88,3.72.97,1.2,3.14,3.65,4.72,2.28,2.22-1.92-2.38-4.46-3.08-6.08-.52-.43-2.1-.34-2.52.08ZM86.06,39.32c-2.73.26-1.99,4.27.95,3.68,2.07-.42,1.62-3.92-.95-3.68Z"/></svg>