<?xml version="1.0" encoding="UTF-8"?><svg id="Layer_1" xmlns="http://www.w3.org/2000/svg" viewBox="0 0 144 144"><defs><style>.cls-1{fill:#fff;}.cls-2{fill:#636d5d;}</style></defs><rect class="cls-2" width="144" height="144" rx="18.11" ry="18.11"/><path class="cls-1" d="M65.77,65.09c.07-10.07,8.58-18.01,18.63-17.37.32-4.79-.46-9.46-4.45-12.52-1.04-.8-3.9-2.24-5.14-2.24h-9.49c0-7.78-6.31-14.09-14.09-14.09s-14.09,6.31-14.09,14.09h0s-9.84,0-9.84,0c-3.84,0-9.13,5.36-9.26,9.33l-.04,66.96c.13,4.66,5.6,9.87,10.19,9.87h28.47c-2.68-3.33-4.12-6.76-4.42-11.07-.55-7.7-.51-19.43-.02-27.15.52-8.23,5.46-14.13,13.55-15.81ZM42.58,32.97c0-4.78,3.87-8.65,8.65-8.65s8.65,3.87,8.65,8.65h0s-17.31,0-17.31,0h0Z"/><path class="cls-1" d="M116.12,69.85h-4.57c5.01-12.64-10.02-22.93-19.92-13.58-9.68-9.5-24.82,1.13-19.92,13.58h-4.57c-3.99,0-9.88,5.54-9.88,9.59v11.36h30.69c-.08-6.98.11-13.97,0-20.95-3.15-.05-7.64.84-9.26-2.69-2.18-4.73,3.17-9.26,7.34-6.16,2.72,2.02,1.87,5.8,1.92,8.85,2.45.04,4.93.04,7.38,0,.06-3.8-.82-9.44,4.56-9.75,6.74-.39,6.73,8.79,1.41,9.68-1.74.29-4.14.04-5.98.07-.12,6.97.09,13.97,0,20.95h30.69v-11.95c0-3.68-6.24-9-9.88-9Z"/><path class="cls-1" d="M95.31,119.12h20.51c2.83,0,6.79-2.61,8.36-4.92.33-.48,1.82-3.73,1.82-4.08v-11.95h-30.69v20.95Z"/><path class="cls-1" d="M57.25,109.53c0,4.18,6.07,9.59,10.18,9.59h20.51v-20.95h-30.69v11.36Z"/></svg>