<?xml version="1.0" encoding="UTF-8"?><svg id="Layer_1" xmlns="http://www.w3.org/2000/svg" viewBox="0 0 144 144"><defs><style>.cls-1{fill:#fff;}.cls-2{fill:#636d5d;}</style></defs><rect class="cls-2" width="144" height="144" rx="18.11" ry="18.11"/><path class="cls-1" d="M78.72,82.83h-19.7v30.06c0,4.3-1.01,7.56-3.04,9.78s-4.59,3.33-7.68,3.33-5.84-1.1-7.82-3.3c-1.98-2.2-2.97-5.42-2.97-9.67V31.18c0-4.73,1.09-8.11,3.26-10.14s5.62-3.04,10.36-3.04h27.6c8.16,0,14.44.63,18.83,1.88,4.35,1.21,8.1,3.21,11.26,6.01,3.16,2.8,5.57,6.23,7.21,10.29,1.64,4.06,2.46,8.62,2.46,13.69,0,10.82-3.33,19.01-10,24.59-6.66,5.58-16.59,8.37-29.77,8.37ZM73.51,34.15h-14.49v32.45h14.49c5.07,0,9.31-.53,12.71-1.59,3.4-1.06,6-2.8,7.79-5.22,1.79-2.41,2.68-5.58,2.68-9.49,0-4.68-1.38-8.5-4.13-11.44-3.09-3.14-9.44-4.71-19.05-4.71Z"/></svg>