<?xml version="1.0" encoding="UTF-8"?><svg id="Layer_1" xmlns="http://www.w3.org/2000/svg" viewBox="0 0 144 144"><defs><style>.cls-1{fill:#fff;}.cls-2{fill:#636d5d;}</style></defs><rect class="cls-2" width="144" height="144" rx="18.11" ry="18.11"/><path class="cls-1" d="M115.2,55.06l-15.07-9.37c.2-3.38-.44-7.46-.06-10.75.15-1.25.79-1.88,2.02-2.02,2.34-.28,8.74-.27,11.08,0,.7.08,2.02.78,2.02,1.49v20.66Z"/><path class="cls-1" d="M126,66.4v8.03c-.85,1.27-1.66,1.74-3.23,1.2l-50.68-33.55-50.86,33.55c-1.57.54-2.38.06-3.23-1.2v-8.03l54.13-35.66,53.87,35.66Z"/><path class="cls-1" d="M37.86,87.51c.51-.84.93-1.38,1.98-1.52,1.12-.15,7.06.18,7.39-.04l3.09-11.16c-.53-.47-1.24-.14-2-.39-1.97-.64-1.8-3.78.25-4.27l47,.04c2.06.59,1.98,3.9-.13,4.32-.38.08-1.71-.09-1.75.29l3.09,11.16c.33.21,6.27-.12,7.39.04,1.05.14,1.47.68,1.98,1.52v1.37c-.19.66-1.29,1.71-1.96,1.71h-6.23l3.58,13.23c.3,2.71-3.11,3.68-4.34,1.26l-8.15-14.47-34-.04-8.51,14.91c-1.51,2.03-4.51.64-4.05-1.83l3.57-13.08h-6.23c-.61,0-1.67-.99-1.96-1.54v-1.54ZM86.34,85.97c-1.8-2.74-2.52-6.55-6.39-6.84-5.35-.4-11.26.25-16.66.08-3.07.56-4.11,4.47-5.63,6.75h28.68Z"/></svg>