<?xml version="1.0" encoding="UTF-8"?><svg id="Layer_1" xmlns="http://www.w3.org/2000/svg" viewBox="0 0 144 144"><defs><style>.cls-1{fill:#fff;}.cls-2{fill:#636d5d;}</style></defs><rect class="cls-2" width="144" height="144" rx="18.11" ry="18.11"/><path class="cls-1" d="M126,117.36v8.64h-7.29c-14.64-1-28.55-4.52-36.23-18.18-2.51-4.47-3.71-9.32-5.85-13.86-1.4-2.98-3.16-6.17-6.8-6.57v-25.92c3.71-.06,7.64,1,10.88,2.76,16.94,9.16,13.55,38.04,29.09,44.08,5.55,2.16,11.31-.38,14.85,5.67.53.9,1.22,2.39,1.34,3.38Z"/><path class="cls-1" d="M56.07,126c-1.73-1.01-1.35-2.58-1.35-4.32h-23.76v-4.32h23.76v-4.32h-23.76v-4.32h23.76v-4.32h-23.76v-4.32h23.76v-4.32h-23.76v-4.32h23.76v-2.16h10.8v35.23c0,.39-1.02,1.2-1.35,1.49h-8.1Z"/><path class="cls-1" d="M18,89.28h10.8v35.23c0,.39-1.02,1.2-1.35,1.49h-9.45v-36.72Z"/><path class="cls-1" d="M18,43.92h47.52v41.72c0,.62-1.55,1.74-2.28,1.5-14.74-.22-29.61.39-44.26-.31l-.97-1.05v-41.85ZM54.7,63.35c0-7.15-5.79-12.94-12.94-12.94s-12.94,5.79-12.94,12.94,5.79,12.94,12.94,12.94,12.94-5.79,12.94-12.94Z"/><polygon class="cls-1" points="42.57 18 64.17 39.6 19.35 39.6 40.95 18 42.57 18"/></svg>