<?xml version="1.0" encoding="UTF-8"?><svg id="Layer_1" xmlns="http://www.w3.org/2000/svg" viewBox="0 0 144 144"><defs><style>.cls-1{fill:#fff;}.cls-2{fill:#636d5d;}</style></defs><rect class="cls-2" width="144" height="144" rx="18.11" ry="18.11"/><path class="cls-1" d="M63.36,74.19H22.32v-20.86c0-4.7,5.7-8.95,10.12-9.3,5.61-.44,14.9-.39,20.54,0,4.54.32,10.38,4.42,10.38,9.3v20.86Z"/><path class="cls-1" d="M18,83.88v-2.15c.79-1.75,1.87-3,3.91-3.23h41.59c5.65.49,5.51,8.19,0,8.63H21.91c-2.05-.24-3.13-1.49-3.91-3.24Z"/><path class="cls-1" d="M63.36,91.42v6.33c0,4.11-4.16,9.95-7.47,12.2-6.05,4.12-19.04,4.27-25.28.54-3.75-2.24-8.28-8.26-8.28-12.74v-6.33h41.04Z"/><path class="cls-1" d="M56.07,114.84c.31,2,2.14,8.19-.73,8.83l-24.52.06c-3.6-.42-1.55-6.53-1.21-8.89,2.74,1.29,5.71,2.24,8.76,2.44,5.85.38,12.42.25,17.69-2.44Z"/><path class="cls-1" d="M126,72.84c-2.32,6.52-7.18,11.83-14.04,13.6-4.5,1.16-19.28,1.17-23.76,0-5.83-1.53-12.82-7.46-13.92-13.59-.18-.98.13-2.97,1.36-2.97h13.64c-1.04-5.84,5.36-5.84,4.32,0h4.32v-14.67c0-2.27-4.69-3.86-6.15-.75-.7,1.49.33,4.12-1.88,4.6-3.9.85-2.96-4.84-1.81-6.93,2.81-5.09,10.63-5.02,13.3.17.18.36.86,2.13.86,2.37v15.21h4.32c-1.04-5.84,5.36-5.84,4.32,0h13.64c.39,0,1.2,1.02,1.49,1.35v1.62Z"/><path class="cls-1" d="M108.72,20.34c6.81.73,15.12,8.12,15.12,15.21v30.02h-4.32v-29.48c0-5.9-6.68-11.06-12.27-11.45-4.23-.3-14.86-.48-18.5.96s-8.1,6.29-8.1,10.23v29.75h-4.32v-30.02c0-7.11,8.31-14.48,15.12-15.21,3.89-.41,13.39-.42,17.28,0Z"/><path class="cls-1" d="M110.61,91.15l-2.09,31.43c-.4.76-.98,1.05-1.82,1.15-2.94.34-9.97.28-12.98,0-1.23-.11-2-.48-2.27-1.78l-1.9-30.81h21.06Z"/></svg>