<?xml version="1.0" encoding="UTF-8"?><svg id="Layer_1" xmlns="http://www.w3.org/2000/svg" viewBox="0 0 144 144"><defs><style>.cls-1{fill:#fff;}.cls-2{fill:#636d5d;}</style></defs><rect class="cls-2" width="144" height="144" rx="18.11" ry="18.11"/><path class="cls-1" d="M74.83,109.09c.32.19.37.42.44.75.81,4.01-.09,8.49,2.39,12.06-1.03.22-2.05.53-3.12.61-14.72,1.09-30.76-.85-45.62,0-6.7-.23-12.25-6.76-10.57-13.42h56.48Z"/><path class="cls-1" d="M18.5,104.62c-.65-.2-.5-2.51-.44-3.13.34-3.5,3.13-6.22,6.48-6.94l49.21-.03.94,10.09H18.5Z"/><path class="cls-1" d="M23.57,90.01c-2.2-.31-4.74-2.33-5.31-4.52-.95-3.65,1.98-9.26,4.02-12.26,10.39-15.21,33.33-18.85,48.65-9.13l1.65,16.07c-1.39-.92-5.93-1.09-6.7.6-.34.75-.24,2.03.3,2.67.82.95,5.79,1.03,6.69-.29l.6,6.85H23.57ZM46.28,65.34c-2.02.45-2.34,3.49-.5,4.25.99.41,5.27.42,5.92-.62,2.28-3.61-3.21-4.12-5.42-3.63ZM42.1,76.22c2.38-2.96-3.24-5.43-4.52-2.59-1.46,3.22,3.16,4.29,4.52,2.59ZM63.27,73.11c-1.23-1.24-7.76-1.5-7.02,2.08.45,2.18,4.27,2.03,5.99,1.64,1.63-.36,2.16-2.59,1.02-3.73ZM33.17,80.54c-2.15.48-2.31,3.5-.5,4.25.99.41,5.27.42,5.92-.62,2.27-3.61-3.21-4.13-5.42-3.63ZM50.46,80.84c-2.65.48-2.86,4.08-.08,4.41,2.12.25,5.9.57,5.51-2.51-.29-2.3-3.7-2.21-5.44-1.89Z"/><path class="cls-1" d="M93.16,47.1l-4.47-21.46-10.42,7.02c-2.33.77-3.81-1.65-2.61-3.65l10.25-7.19c2.72-1.58,5.96-.22,7.09,2.64l4.66,22.61c6.97.52,14.69-.59,21.57.04,7.38.67,9.28,9.35,2.92,12.89l-1.87,18.69h-9.09c-6.03-9.12-19.16-9.22-25.1,0l-8.99-.05-1.82-18.53c-4.52-2.06-5.45-8.25-1.5-11.39.61-.49,2.77-1.63,3.43-1.63h15.94Z"/><path class="cls-1" d="M111.04,99.85h7.15l-1.2,15.64c-.39,4.21-2.74,6.7-6.99,7.02-7.6.57-15.89-.45-23.56-.01-3.06-.51-5.4-2.52-6.04-5.58l-1.56-17.07h7c5.96,9.02,19.6,9.54,25.18,0Z"/><path class="cls-1" d="M119.98,83.16l-1.19,12.22h-9.39c-1.85,1.17-2.56,3.19-4.32,4.62-4.07,3.33-9.94,3.02-13.72-.59-.98-.93-2.24-3.58-3.25-3.9-1.56-.49-9.11.19-9.52-.17l-1.22-12.19h10.58c.54,0,3.24-3.71,4.17-4.48,4.72-3.92,10.66-2.89,14.61,1.49.83.92,1.3,2.21,2.38,2.98h10.88ZM97.84,83.82c-4.33.98-3.98,11.47,1.02,11.1,5.05-.37,4.68-12.39-1.02-11.1Z"/></svg>