<?xml version="1.0" encoding="UTF-8"?><svg id="Layer_1" xmlns="http://www.w3.org/2000/svg" viewBox="0 0 144 144"><defs><style>.cls-1{fill:#fff;}.cls-2{fill:#636d5d;}</style></defs><rect class="cls-2" width="144" height="144" rx="18.11" ry="18.11"/><path class="cls-1" d="M47.99,84.79c1.9.8,3.52,1.92,5.48,2.63,6.62,2.39,12.84,1.16,18.6-2.62,1.82.69,3.4,1.93,5.23,2.62,6.51,2.44,13.2,1.1,18.84-2.67,6.74,4.59,15.01,5.27,22.16,1.13l3.48,3.94c0,.91-5.46,3.78-6.5,4.21-4.84,1.99-9.58,1.85-14.56.39-.96-.28-4.07-1.7-4.59-1.7s-3.63,1.42-4.59,1.7c-6.51,1.91-13.2,1.28-19.27-1.72-6.31,2.88-12.79,3.69-19.51,1.72-.96-.28-4.07-1.7-4.59-1.7s-3.63,1.42-4.59,1.7c-4.82,1.41-9.66,1.62-14.37-.3-1.08-.44-6.05-3.13-6.54-3.89-.22-.34-.15-.49,0-.82.35-.75,2.68-2.39,3.16-3.44.48-.23,2.92,1.25,3.69,1.53,6.24,2.29,13.08,1.08,18.43-2.71Z"/><path class="cls-1" d="M126.98,63.92c.1.75.1,2.54,0,3.29-1.05,8.07-12.89,14.49-19.99,9.44-10.06-7.16.49-26.56,13.32-21.28,3.17,1.3,6.22,5.13,6.66,8.55Z"/><path class="cls-1" d="M104.78,83.11c-3.26-.68-5.73-2.94-8.63-4.37-3.15,1.65-5.57,3.76-9.17,4.52-5.92,1.24-9.95-1.52-14.69-4.54-.76-.06-4.25,2.62-5.33,3.16-6.16,3.02-12.25,1.82-17.26-2.6,3.22-1.54,7.36-2.77,10.38-4.56,3.4-2.01,6.92-5.55,10.16-7.92l-12.52-10.79-24.09,10.9c-1.47.33-2.24.25-3.67-.1-3.43-.85-7.03-2.82-10.5-3.75l-.42-.35c.88-1.83.57-4,2.29-5.35,2.5-1.96,8.61-.07,11.71-.34l24.31-13.79c2.03-1.06,4.65-.98,6.56.31l24,18.49,16.85,21.11Z"/></svg>