<?xml version="1.0" encoding="UTF-8"?><svg id="Layer_1" xmlns="http://www.w3.org/2000/svg" viewBox="0 0 144 144"><defs><style>.cls-1{fill:#fff;}.cls-2{fill:#603913;}</style></defs><rect class="cls-2" width="144" height="144" rx="18.11" ry="18.11"/><path class="cls-1" d="M18.81,104.3c-.94-.29-2.01-2.07-2-3.22L50.24,36.85c3.86-2.44,7.77,2.65,11.55,3.92,10.23,3.43,18.58-.12,27.6-4.61l3.11,2.17,32.31,62.76c.11,1.07-1.35,3.22-2,3.22H18.81ZM113.18,96.6l-26.49-49.84c-8.39,2.78-13.01,4.33-21.89,2.54-1.73-.35-2.29-.24-1.68,1.7l25.02,45.61h25.04ZM77.22,96.59c.51-2.01-.53-3.02-1.21-4.55-1.36-3.05-22.47-44.45-24.44-42.95l-23.12,47.5c2.5-.48,8.35.87,10.06-.2.63-.4,5.07-11.2,6.4-13.49,2.76-4.78,5.15-12.7,11.1-5.51,7.16,8.65,4.46,23.25,21.22,19.21Z"/></svg>