<?xml version="1.0" encoding="UTF-8"?><svg id="Layer_1" xmlns="http://www.w3.org/2000/svg" viewBox="0 0 144 144"><defs><style>.cls-1{fill:#fff;}.cls-2{fill:#636d5d;}</style></defs><rect class="cls-2" width="144" height="144" rx="18.11" ry="18.11"/><path class="cls-1" d="M48.77,38.12c.34.32.84.3,1.25.53.63.37,1.98,2.07,1.98,2.78v3.48h14.02c.28,0,.83.66.9.97.41,1.86-1.54,1.86-2.86,1.74l-4.78,54.61c-.11,1.92-1.22,3.27-3.04,3.84h-27.53c-1.84-.52-2.91-1.95-3.04-3.84l-4.78-54.61c-1.32.12-3.26.12-2.86-1.74.07-.32.62-.97.9-.97h14.02v-3.48c0-.06.37-.94.44-1.09.58-1.12,1.66-1.77,2.79-2.23h12.57ZM49.28,44.92v-3.14c0-.32-.85-1.04-1.27-.94-3.51.25-7.43-.32-10.89,0-.49.04-1.44.38-1.44.94v3.14h13.59ZM35.7,51.7h-2.73v47.6h2.73v-47.6ZM43.86,51.7h-2.73v47.6h2.73v-47.6ZM52.01,51.7h-2.73v47.6h2.73v-47.6Z"/><path class="cls-1" d="M109.77,45.4h15.21c.54,0,1.05,1.02,1.03,1.56-.07,1.6-1.79,1.44-2.96,1.39v53.91c0,1.48-2.71,3.87-4.32,3.6h-38.9c-1.48.06-3.96-2.22-3.96-3.6v-53.91c-1.17.05-2.9.22-2.96-1.39-.02-.54.49-1.56,1.03-1.56h15.21v-3.78c0-.11.5-1.21.62-1.41.82-1.35,2.14-2.07,3.71-2.19,4.06-.32,8.57.21,12.68.05,1.36.07,3.64,2.27,3.64,3.55v3.78ZM106.82,45.4v-3.41c0-.35-.93-1.13-1.38-1.02-3.81.27-8.06-.34-11.81,0-.53.05-1.56.41-1.56,1.02v3.41h14.74ZM93.05,70.59c.52.52,1.49.55,2.07.05,1.06-.9,2.99-6.18,4.39-6.05,1.22.12,3.24,4.85,4.11,5.86.16.56-.97.84-.59,2.04.2.62,3.1,2.49,3.71,2.57.74.1,1.52-.28,1.7-1.05.15-.66.13-3.84-.17-4.36-.4-.72-1.19-.76-1.89-.52-2.11-2.34-3.34-7.95-7.37-7.5-3.16.35-4.75,5.24-6.3,7.54-.19.36.08,1.17.34,1.42ZM92.57,77.96c.56-.61.54-3.22.43-4.09-.15-1.23-1.05-1.65-2.23-1.29-.25.08-3,1.73-3.13,1.9-.38.49-.46,1.23-.14,1.77.15.25.51.29.53.42.1.55-2.3,4-2.7,4.85-1.45,3.12-.22,5.92,3.33,6.27,1.03.1,6.97.13,7.6-.14,1.12-.48,1.03-2.36-.13-2.73-1.55-.48-5.23.13-7.11-.08-.77-.09-1.47-.28-1.38-1.18.13-1.27,2.61-4,2.96-5.45.08-.06,1.22.56,1.96-.25ZM110.81,76.98c-1-.97-2.59-.27-2.53,1.13s3.15,4.57,2.97,5.89c-.02.16-.08.27-.17.4-.66.85-4.83.27-5.97.45-.73-2.65-3.48-1.06-4.98.02-.89.64-1.23,1.47-.41,2.37.18.2,2.64,1.77,2.92,1.87.73.28,1.57.24,1.99-.49.18-.32.15-.8.18-.83.19-.2,4.73.07,5.59-.03,3.46-.4,4.56-3.24,3.16-6.25-.29-.63-2.37-4.18-2.74-4.54Z"/></svg>