<?xml version="1.0" encoding="UTF-8"?><svg id="Layer_1" xmlns="http://www.w3.org/2000/svg" viewBox="0 0 144 144"><defs><style>.cls-1{fill:#fff;}.cls-2{fill:#636d5d;}</style></defs><rect class="cls-2" width="144" height="144" rx="18.11" ry="18.11"/><path class="cls-1" d="M37.06,18.61l68.91-.1c6.23.88,8.74,4.59,9.16,10.61-.22,29.37.81,57.47,0,86.22-.17,6.19-3.11,9.94-9.52,10.63-21.94-1.32-45.85,1.71-67.56,0-5.55-.44-9.08-3.98-9.51-9.51l.02-88.8c.33-4.67,3.82-8.51,8.49-9.04ZM43.99,33.93c-.67.67-1.32,2.05-1.26,3.03,1.14,15.98-1.45,33.91,0,49.66.23,2.45,1.95,3.84,4.3,4.28,9.82-.73,20.96.94,30.62.01,2.75-.27,4.4-1.92,4.66-4.66,1.49-15.43-1.16-33.23,0-48.91.06-2.18-1.78-4.4-3.92-4.66-9.97.9-22.01-1.18-31.73,0-.88.11-2.06.65-2.66,1.26ZM95.61,42.09c-1.26.29-1.63,1.15-1.77,2.34-.4,3.43-.49,15.37.03,18.64.38,2.39,3.44,2.44,5.38,2.07,1.17-.22,1.57-1.35,1.69-2.41.39-3.38.49-15.47-.03-18.64-.41-2.51-3.22-2.47-5.31-1.99ZM95.61,70.07c-2.31.53-2.15,5.61-1.59,7.4.86,2.76,6.41,2.43,6.91-.22.19-1,.13-4.84-.16-5.79-.58-1.9-3.56-1.76-5.16-1.39ZM81.82,103.29c-.49-.52-1.94-.79-2.68-.86-10.88-.98-23.27.76-34.32.04-.49.06-.94.23-1.32.55-1.08.93-1.78,9.02,1.27,8.77l35.83-.03c2.44-.14,1.94-7.7,1.22-8.48Z"/><path class="cls-1" d="M51.21,44.33c.97-.28,5.91-.22,6.66.27,1.8,1.17,1.67,10.61.81,12.43-.93,1.96-7.72,1.87-8.66.27-1-1.7-1.32-12.24,1.18-12.97Z"/><path class="cls-1" d="M51.59,65.22c1.76-.39,6.23-.51,7.1,1.32.76,1.59.76,10.14-.11,11.64-.93,1.61-6.76,1.54-8,.58-1.52-1.19-1.32-8.37-1.08-10.4.17-1.42.51-2.79,2.09-3.13Z"/><path class="cls-1" d="M68,65.22c1.69-.38,6.4-.55,7.03,1.39.37,1.14.37,9.21.14,10.63-.51,3.2-8.32,2.83-9.14.23-.37-1.19-.37-8.47-.14-9.88.17-1.11.99-2.12,2.11-2.37Z"/><path class="cls-1" d="M74.74,57.59c-1.24,1.24-7.38,1.36-8.45-.51-.62-1.07-.6-8.43-.42-10.04.19-1.76.69-2.6,2.43-2.79,1.47-.16,6.02-.36,6.72,1.12.46.96.34,11.61-.28,12.23Z"/></svg>